<svg width="26" height="24" viewBox="0 0 26 24" fill="none" xmlns="http://www.w3.org/2000/svg">
<g id="Eyes (&#231;&#156;&#188;&#231;&#157;&#155;)">
<path id="Vector" fill-rule="evenodd" clip-rule="evenodd" d="M12.5098 20.5C17.6915 20.5 21.8921 16.339 21.8921 13.5C21.8921 10.661 17.6915 6.5 12.5098 6.5C7.32808 6.5 3.12744 10.6639 3.12744 13.5C3.12744 16.3361 7.32808 20.5 12.5098 20.5Z" stroke="white" stroke-width="2" stroke-linejoin="round"/>
<path id="Vector_2" d="M12.5098 16.5C14.237 16.5 15.6372 15.1568 15.6372 13.5C15.6372 11.8432 14.237 10.5 12.5098 10.5C10.7825 10.5 9.38232 11.8432 9.38232 13.5C9.38232 15.1568 10.7825 16.5 12.5098 16.5Z" stroke="white" stroke-width="2" stroke-linejoin="round"/>
<path id="Vector_3" d="M6.91357 5.63306L8.26594 7.44316" stroke="white" stroke-width="2" stroke-linecap="round"/>
<path id="Vector_4" d="M18.5692 5.85519L17.2168 7.66534" stroke="white" stroke-width="2" stroke-linecap="round"/>
<path id="Vector_5" d="M12.5144 3.5V6.5" stroke="white" stroke-width="2" stroke-linecap="round"/>
</g>
</svg>
