<svg width="30" height="30" viewBox="0 0 30 30" fill="none" xmlns="http://www.w3.org/2000/svg">
<g id="Info (&#228;&#191;&#161;&#230;&#129;&#175;)">
<path id="Vector" d="M15 27.5C18.4517 27.5 21.5768 26.1009 23.8388 23.8388C26.1009 21.5768 27.5 18.4517 27.5 15C27.5 11.5483 26.1009 8.42325 23.8388 6.16116C21.5768 3.89911 18.4517 2.5 15 2.5C11.5483 2.5 8.42325 3.89911 6.16116 6.16116C3.89911 8.42325 2.5 11.5483 2.5 15C2.5 18.4517 3.89911 21.5768 6.16116 23.8388C8.42325 26.1009 11.5483 27.5 15 27.5Z" stroke="#00006B" stroke-width="2" stroke-linejoin="round"/>
<path id="Vector_2" fill-rule="evenodd" clip-rule="evenodd" d="M15 6.875C15.8629 6.875 16.5625 7.57456 16.5625 8.4375C16.5625 9.30044 15.8629 10 15 10C14.1371 10 13.4375 9.30044 13.4375 8.4375C13.4375 7.57456 14.1371 6.875 15 6.875Z" fill="#00006B"/>
<path id="Vector_3" d="M15.3125 21.25V12.5H14.6875H14.0625" stroke="#00006B" stroke-width="2" stroke-linecap="round" stroke-linejoin="round"/>
<path id="Vector_4" d="M13.125 21.25H17.5" stroke="#00006B" stroke-width="2" stroke-linecap="round" stroke-linejoin="round"/>
</g>
</svg>
