<svg width="26" height="24" viewBox="0 0 26 24" fill="none" xmlns="http://www.w3.org/2000/svg">
<g id="People (&#228;&#186;&#186;&#229;&#145;&#152;)">
<path id="Vector" d="M12.9846 10C15.0762 10 16.7718 8.433 16.7718 6.5C16.7718 4.56701 15.0762 3 12.9846 3C10.893 3 9.19743 4.56701 9.19743 6.5C9.19743 8.433 10.893 10 12.9846 10Z" stroke="white" stroke-width="2" stroke-linecap="round" stroke-linejoin="round"/>
<path id="Vector_2" d="M3.24615 20.4V21H22.7231V20.4C22.7231 18.1598 22.7231 17.0397 22.2514 16.184C21.8364 15.4314 21.1742 14.8195 20.3598 14.436C19.434 14 18.222 14 15.7979 14H10.1713C7.74727 14 6.53527 14 5.60941 14.436C4.79499 14.8195 4.13286 15.4314 3.7179 16.184C3.24615 17.0397 3.24615 18.1598 3.24615 20.4Z" stroke="white" stroke-width="2" stroke-linecap="round" stroke-linejoin="round"/>
</g>
</svg>
