<svg width="30" height="30" viewBox="0 0 30 30" fill="none" xmlns="http://www.w3.org/2000/svg">
<g id="Phone-two (&#231;&#148;&#181;&#232;&#175;&#157;2)">
<path id="Vector" d="M24.375 3.75H5.625C4.58947 3.75 3.75 4.58947 3.75 5.625V24.375C3.75 25.4106 4.58947 26.25 5.625 26.25H24.375C25.4106 26.25 26.25 25.4106 26.25 24.375V5.625C26.25 4.58947 25.4106 3.75 24.375 3.75Z" stroke="#00006B" stroke-width="2"/>
<path id="Vector_2" d="M12.15 8.75C12.4278 8.75 12.6837 8.90063 12.8185 9.14344L13.7537 10.8281C13.8762 11.0486 13.8819 11.3154 13.769 11.5411L13.125 13.125C13.125 13.125 13.2823 14.5323 14.375 15.625C15.4677 16.7177 16.875 16.875 16.875 16.875L18.4541 16.2266C18.6799 16.1136 18.9469 16.1194 19.1675 16.2421L20.8569 17.1814C21.0995 17.3163 21.25 17.5721 21.25 17.8496V19.7891C21.25 20.7768 20.3325 21.4901 19.3967 21.1743C17.4747 20.5258 14.4911 19.291 12.6 17.3999C10.709 15.5089 9.47417 12.5253 8.82561 10.6033C8.50986 9.66744 9.22324 8.75 10.2109 8.75H12.15Z" stroke="#00006B" stroke-width="2" stroke-linejoin="round"/>
</g>
</svg>
