<svg width="37" height="37" viewBox="0 0 37 37" fill="none" xmlns="http://www.w3.org/2000/svg">
<g id="School (&#229;&#173;&#166;&#230;&#160;&#161;)">
<path id="Vector" d="M3.08334 25.4375C3.08334 24.586 3.77357 23.8958 4.62501 23.8958H9.25001V18.5L18.5 12.3333L27.75 18.5V23.8958H32.375C33.2265 23.8958 33.9167 24.586 33.9167 25.4375V32.375C33.9167 33.2265 33.2265 33.9167 32.375 33.9167H3.08334V25.4375Z" stroke="white" stroke-width="2" stroke-linejoin="round"/>
<path id="Vector_2" d="M18.5 4.625V12.3333" stroke="white" stroke-width="2" stroke-linecap="round"/>
<path id="Vector_3" d="M27.75 9.24985V4.62488C27.75 4.62488 26.5937 6.93738 23.125 4.62488C19.6562 2.31238 18.5 4.62488 18.5 4.62488V9.24985C18.5 9.24985 19.6562 6.93738 23.125 9.24985C26.5937 11.5624 27.75 9.24985 27.75 9.24985Z" stroke="white" stroke-width="2" stroke-linecap="round" stroke-linejoin="round"/>
<path id="Vector_4" d="M21.5833 33.9167V23.8958H15.4167V33.9167" stroke="white" stroke-width="2" stroke-linecap="round" stroke-linejoin="round"/>
<path id="Vector_5" d="M13.875 33.9167H23.125" stroke="white" stroke-width="2" stroke-linecap="round" stroke-linejoin="round"/>
</g>
</svg>
