<svg width="30" height="30" viewBox="0 0 30 30" fill="none" xmlns="http://www.w3.org/2000/svg">
<g id="School (&#229;&#173;&#166;&#230;&#160;&#161;)">
<path id="Vector" d="M2.5 20.625C2.5 19.9346 3.05964 19.375 3.75 19.375H7.5V15L15 10L22.5 15V19.375H26.25C26.9404 19.375 27.5 19.9346 27.5 20.625V26.25C27.5 26.9404 26.9404 27.5 26.25 27.5H2.5V20.625Z" stroke="#00006B" stroke-width="2" stroke-linejoin="round"/>
<path id="Vector_2" d="M15 3.75V10" stroke="#00006B" stroke-width="2" stroke-linecap="round"/>
<path id="Vector_3" d="M22.5 7.49981V3.74984C22.5 3.74984 21.5625 5.62484 18.75 3.74984C15.9375 1.87484 15 3.74984 15 3.74984V7.49981C15 7.49981 15.9375 5.62484 18.75 7.49981C21.5625 9.37481 22.5 7.49981 22.5 7.49981Z" stroke="#00006B" stroke-width="2" stroke-linecap="round" stroke-linejoin="round"/>
<path id="Vector_4" d="M17.5 27.5V19.375H12.5V27.5" stroke="#00006B" stroke-width="2" stroke-linecap="round" stroke-linejoin="round"/>
<path id="Vector_5" d="M11.25 27.5H18.75" stroke="#00006B" stroke-width="2" stroke-linecap="round" stroke-linejoin="round"/>
</g>
</svg>
